<svg width="30" height="20" viewBox="0 0 30 20" fill="none" xmlns="http://www.w3.org/2000/svg">
<path d="M0 1.66667C0 0.746192 0.746192 0 1.66667 0H28.3333C29.2538 0 30 0.746192 30 1.66667C30 2.58714 29.2538 3.33333 28.3333 3.33333H1.66667C0.746191 3.33333 0 2.58714 0 1.66667Z" fill="white"/>
<path d="M6.66666 7.22221C6.66666 6.30173 7.41286 5.55554 8.33333 5.55554H28.3333C29.2538 5.55554 30 6.30173 30 7.22221C30 8.14268 29.2538 8.88888 28.3333 8.88888H8.33333C7.41286 8.88888 6.66666 8.14268 6.66666 7.22221Z" fill="white"/>
<path d="M12.2222 18.3333C12.2222 17.4128 12.9684 16.6667 13.8889 16.6667H28.3333C29.2538 16.6667 30 17.4128 30 18.3333C30 19.2538 29.2538 20 28.3333 20H13.8889C12.9684 20 12.2222 19.2538 12.2222 18.3333Z" fill="white"/>
<path d="M3.33334 12.7778C3.33334 11.8573 4.07953 11.1111 5 11.1111H28.3333C29.2538 11.1111 30 11.8573 30 12.7778C30 13.6983 29.2538 14.4444 28.3333 14.4444H5C4.07953 14.4444 3.33334 13.6983 3.33334 12.7778Z" fill="white"/>
</svg>
